# xmcd
#
# Track frame offsets:
#	150
#	10722
#	22804
#	36410
#	54293
#	67276
#	79212
#	93685
#	108113
#	122351
#	139631
#	152593
#
# Disc length: 2245 seconds
#
# Revision: 1
# Processed by: cddbd v1.5.2PL0 Copyright (c) Steve Scherf et al.
# Submitted via: audiograbber 1.83.01
#
DISCID=8f08c30c
DTITLE=William Bell - Stax Classics    STAX  2017
DYEAR=2017
DGENRE=Soul
TTITLE0=William Bell - I Forgot To Be Your Lover     1968
TTITLE1=William Bell and Judy Clay - Private Number      1968
TTITLE2=William Bell - You Don't Miss Your Water     1961
TTITLE3=William Bell - Lovin' On Borrowed Time     1973
TTITLE4=William Bell - A Tribute To A King (Otis Redding)     1968
TTITLE5=William Bell and Judy Clay - My Baby Specializes      1968
TTITLE6=William Bell - Born Under A Bad Sign      1969
TTITLE7=William Bell - All For The Love Of A Woman      1971
TTITLE8=William Bell - My Whole World Is Falling Down      1969
TTITLE9=William Bell - I've Got To Go On Without You     1973
TTITLE10=William Bell - Everybody Loves A Winner      1967
TTITLE11=William Bell - Gettin' What You Want (Losin' What You Got)     1974
EXTD=
EXTT0=
EXTT1=
EXTT2=
EXTT3=
EXTT4=
EXTT5=
EXTT6=
EXTT7=
EXTT8=
EXTT9=
EXTT10=
EXTT11=
PLAYORDER=
